<svg xmlns="http://www.w3.org/2000/svg" xmlns:xlink="http://www.w3.org/1999/xlink" id="visual" width="960" height="540" preserveAspectRatio="none" version="1.1" viewBox="0 0 960 540"><rect width="960" height="540" x="0" y="0" fill="#FFF"/><path fill="#28315a" stroke-linecap="round" stroke-linejoin="miter" d="M0 444L20 446.3C40 448.7 80 453.3 120 454.3C160 455.3 200 452.7 240 439.3C280 426 320 402 360 400.5C400 399 440 420 480 431.7C520 443.3 560 445.7 600 440.2C640 434.7 680 421.3 720 411.3C760 401.3 800 394.7 840 403.8C880 413 920 438 940 450.5L960 463L960 541L940 541C920 541 880 541 840 541C800 541 760 541 720 541C680 541 640 541 600 541C560 541 520 541 480 541C440 541 400 541 360 541C320 541 280 541 240 541C200 541 160 541 120 541C80 541 40 541 20 541L0 541Z"/></svg>