<svg xmlns="http://www.w3.org/2000/svg" xmlns:xlink="http://www.w3.org/1999/xlink" id="visual" width="960" height="540" preserveAspectRatio="none" version="1.1" viewBox="0 0 960 540"><rect width="960" height="40" x="0" y="0" fill="#FFF"/><path fill="#28315a" stroke-linecap="round" stroke-linejoin="miter" d="M0 189L20 184.5C40 180 80 171 120 168.8C160 166.7 200 171.3 240 197.8C280 224.3 320 272.7 360 275.7C400 278.7 440 236.3 480 213.2C520 190 560 186 600 197.2C640 208.3 680 234.7 720 254.7C760 274.7 800 288.3 840 269.8C880 251.3 920 200.7 940 175.3L960 150L960 0L940 0C920 0 880 0 840 0C800 0 760 0 720 0C680 0 640 0 600 0C560 0 520 0 480 0C440 0 400 0 360 0C320 0 280 0 240 0C200 0 160 0 120 0C80 0 40 0 20 0L0 0Z"/></svg>