<svg xmlns="http://www.w3.org/2000/svg" xmlns:xlink="http://www.w3.org/1999/xlink" width="100%" height="100%" version="1.1" viewBox="0 0 825 451" xml:space="preserve" style="fill-rule:evenodd;clip-rule:evenodd;stroke-linejoin:round;stroke-miterlimit:2"><g><path d="M472.521,31.415C634.568,35.992 742.019,109.438 792.518,190.584C843.473,272.461 846.072,369.25 714.826,420.766C579.614,473.839 397.307,450.73 258.767,400.089C108.273,345.079 -27.597,261.153 25.872,168.931C81.519,72.954 282.085,26.037 472.521,31.415Z" style="fill:url(#_Linear1)" transform="matrix(0.896352,0,0,0.896352,42.755,23.3727)"/></g><g transform="matrix(0.896352,0,0,0.896352,42.755,23.3727)"><path d="M458.521,0.416C620.568,5.004 728.019,78.625 778.518,159.964C829.473,242.036 832.072,339.055 700.826,390.694C565.614,443.893 383.307,420.73 244.767,369.968C94.273,314.827 -41.597,230.701 11.872,138.26C67.519,42.054 268.085,-4.975 458.521,0.416Z" style="fill:#fff"/><clipPath id="_clip2"><path d="M458.521,0.416C620.568,5.004 728.019,78.625 778.518,159.964C829.473,242.036 832.072,339.055 700.826,390.694C565.614,443.893 383.307,420.73 244.767,369.968C94.273,314.827 -41.597,230.701 11.872,138.26C67.519,42.054 268.085,-4.975 458.521,0.416Z"/></clipPath><g clip-path="url(#_clip2)"><g id="v66_1069.png" transform="matrix(0.726047,0,0,0.726047,-110.254,-26.0754)"><use width="1440" height="693" x="0" y="-80" xlink:href="#_Image3"/></g></g></g><g><path d="M458.521,0.416C620.568,5.004 728.019,78.625 778.518,159.964C829.473,242.036 832.072,339.055 700.826,390.694C565.614,443.893 383.307,420.73 244.767,369.968C94.273,314.827 -41.597,230.701 11.872,138.26C67.519,42.054 268.085,-4.975 458.521,0.416Z" style="fill:none" transform="matrix(0.896352,0,0,0.896352,42.755,23.3727)"/></g><defs><linearGradient id="_Linear1" x1="0" x2="1" y1="0" y2="0" gradientTransform="matrix(-0.5,620,-620,-0.5,419.5,31)" gradientUnits="userSpaceOnUse"><stop offset="0" style="stop-color:#28315a;stop-opacity:1"/><stop offset="1" style="stop-color:#28315a;stop-opacity:0"/></linearGradient><image id="_Image3" width="1540" height="793" xlink:href="/misc/workshop.png"/></defs></svg>