<svg xmlns="http://www.w3.org/2000/svg" xmlns:xlink="http://www.w3.org/1999/xlink" width="100%" height="100%" preserveAspectRatio="none" version="1.1" viewBox="0 0 1399 1126" xml:space="preserve" style="fill-rule:evenodd;clip-rule:evenodd;stroke-linejoin:round;stroke-miterlimit:2"><g><g transform="matrix(1,0,0,1,0,-93) matrix(1,0,0,0.173092,0,140.859)"><rect width="1399" height="6000" x="0" y="0" style="fill:#28315a"/></g><path stroke-opacity="0%" d="M0,1058.87L30,1058.87C60,1058.87 120,1058.87 180,1046C240,1032.21 300,1006.46 360,1025.77C420,1046 480,1112.19 540,1131.5C600,1151.73 660,1125.06 720,1085.53C780,1046 840,992.673 900,979.802C960,966.011 1020,992.673 1080,1012.9C1140,1032.21 1200,1046 1260,1052.43C1320,1058.87 1369,1060.11 1399,1060.11L1399,1218.51C1369,1218.51 1320,1217.92 1260,1217.92L0,1217.92L0,1058.87Z" style="fill:#fff" transform="matrix(1,0,0,1,0,-93)"/><g transform="matrix(1,0,0,1,0,-93) matrix(0.967497,0,0,1,5.80498,0)"><rect width="1446" height="226" x="-6" y="230" style="fill:#fbf1bc"/></g><g transform="matrix(1,0,0,1,0,-93) matrix(0.971528,0,0,1,0,0)"><rect width="1440" height="132" x="0" y="93" style="fill:#b0cee3"/></g><path d="M0,242.536L27.454,265.322C54.908,287.589 108.569,332.125 163.477,339.893C218.385,347.143 272.046,317.107 326.954,298.464C380.615,279.822 435.523,272.572 490.431,279.822C544.092,287.589 599,309.857 653.908,298.464C707.569,287.589 762.477,242.536 817.385,250.304C871.046,257.554 925.954,317.107 979.615,332.125C1034.52,347.143 1089.43,317.107 1143.09,298.464C1198,279.822 1252.91,272.572 1306.57,261.179C1361.48,250.304 1399,240.539 1399,240.539L1399,198.302C1399,198.302 1361.48,198 1306.57,198L0,198L0,242.536Z" style="fill:#b0cee3" transform="matrix(1,0,0,1,0,-93)"/><path d="M0,455.942L27,475.506C53,495.069 107,533.895 160,538.41C213,542.624 267,512.225 320,497.176C373,482.127 427,482.127 480,490.554C533,499.283 587,516.739 640,529.682C693,542.624 747,551.352 800,544.73C853,538.41 907,516.739 960,518.846C1013,520.953 1067,547.138 1120,544.73C1173,542.624 1227,512.225 1280,499.283C1333,486.341 1373,488.073 1399,490.481L1399,442.743C1373,442.743 1333,443 1280,443L0,443L0,455.942Z" style="fill:#fbf1bc" transform="matrix(1,0,0,1,0,-93)"/></g></svg>