<?xml version="1.0" standalone="no"?>
<!DOCTYPE svg PUBLIC "-//W3C//DTD SVG 20010904//EN"
 "http://www.w3.org/TR/2001/REC-SVG-20010904/DTD/svg10.dtd">
<svg version="1.0" xmlns="http://www.w3.org/2000/svg"
 width="328.000000pt" height="328.000000pt" viewBox="0 0 328.000000 328.000000"
 preserveAspectRatio="xMidYMid meet">
<metadata>
Created by potrace 1.14, written by Peter Selinger 2001-2017
</metadata>
<g transform="translate(0.000000,328.000000) scale(0.100000,-0.100000)"
fill="#000000" stroke="none">
<path d="M97 3056 c-3 -8 -2 -27 2 -43 8 -25 110 -301 146 -393 7 -19 48 -129
90 -245 42 -115 80 -219 85 -230 5 -11 23 -60 41 -110 18 -49 36 -94 41 -100
4 -5 8 -17 8 -27 0 -9 6 -32 14 -50 21 -50 38 -95 126 -333 45 -121 87 -236
95 -255 7 -19 39 -105 70 -190 31 -85 62 -171 70 -190 7 -19 53 -141 100 -270
47 -129 94 -253 102 -275 16 -39 63 -96 63 -75 0 5 5 10 11 10 5 0 7 -5 3 -12
-5 -7 -3 -8 7 -3 19 12 91 16 83 4 -3 -5 -11 -6 -17 -3 -7 4 -8 3 -4 -1 10
-12 39 -16 32 -5 -3 5 0 12 6 16 6 3 15 0 20 -7 5 -9 9 -10 9 -2 0 6 8 10 17
9 22 -4 45 27 63 81 7 23 17 40 21 37 5 -3 6 2 3 10 -3 8 -2 21 2 28 5 7 9 18
10 23 1 6 13 40 28 76 14 36 26 71 26 77 0 7 5 12 11 12 5 0 7 5 4 11 -4 6 1
17 11 25 11 9 13 13 7 9 -10 -5 -11 0 -2 22 5 15 15 33 21 40 6 7 8 13 4 13
-3 0 4 24 15 53 11 28 28 72 36 97 8 25 20 48 27 52 6 4 8 8 4 8 -4 0 -2 17 6
37 8 21 17 47 22 58 4 11 9 28 11 38 6 33 24 58 36 51 9 -5 9 -4 0 6 -12 13
-6 43 7 35 5 -3 6 4 3 15 -3 12 0 20 6 20 7 0 10 4 6 9 -3 5 2 27 11 48 32 72
48 116 46 126 -1 4 3 7 9 7 5 0 7 5 4 10 -4 6 -1 17 5 25 7 8 9 15 5 15 -4 0
-3 6 2 13 6 6 13 25 17 40 4 15 10 26 14 23 4 -2 8 8 9 22 1 15 10 45 19 67
10 22 18 42 19 45 1 3 5 19 10 35 5 17 15 36 24 43 9 8 11 11 5 8 -10 -5 12
73 27 99 4 6 14 34 23 62 10 29 21 55 26 58 5 3 6 13 3 22 -5 13 -2 15 12 10
15 -6 16 -5 5 8 -9 11 -9 15 -1 15 7 0 9 5 6 11 -4 6 1 17 11 25 11 9 13 13 7
9 -17 -8 -17 10 0 27 8 7 12 19 9 26 -2 6 1 12 7 12 5 0 9 8 9 18 -1 27 20 72
34 72 10 0 10 2 -1 9 -9 6 -10 11 -2 15 6 4 9 12 6 17 -4 5 -1 9 6 9 7 0 10 3
6 6 -5 6 26 97 60 173 9 20 15 41 14 48 -1 6 3 14 9 18 5 3 10 15 10 26 0 10
4 19 10 19 5 0 7 6 4 14 -3 7 2 20 10 29 8 8 13 17 11 19 -7 7 26 98 35 98 5
0 7 9 5 20 -2 11 0 22 6 25 5 4 9 13 9 22 0 9 8 22 18 30 9 8 12 12 5 8 -8 -4
-7 8 3 40 10 26 20 42 26 38 6 -3 8 -1 4 5 -3 6 5 40 18 76 23 64 23 67 6 76
-27 14 -180 12 -209 -3 -19 -9 -38 -49 -91 -192 -36 -99 -102 -274 -145 -390
-43 -115 -84 -228 -92 -250 -33 -93 -265 -722 -274 -740 -4 -11 -29 -76 -54
-145 -26 -69 -50 -129 -55 -133 -7 -8 -44 82 -45 108 0 6 -2 12 -6 15 -3 3
-13 28 -23 55 -10 28 -21 59 -26 70 -4 11 -18 47 -30 80 -12 33 -26 69 -31 80
-5 11 -13 34 -18 50 -5 17 -30 84 -55 149 -25 66 -43 123 -40 128 3 4 1 8 -3
8 -5 0 -15 17 -22 38 -7 20 -16 46 -21 57 -4 11 -32 83 -60 160 -28 77 -65
176 -82 220 -17 44 -31 85 -32 90 -2 6 -9 26 -18 45 -13 31 -40 106 -43 120
-1 3 -9 23 -18 44 -10 22 -15 46 -12 53 2 8 1 12 -3 9 -5 -3 -16 18 -26 47
-45 129 -81 209 -100 222 -14 11 -48 15 -112 15 -102 0 -122 -10 -105 -51 6
-13 55 -145 110 -294 219 -593 382 -1032 396 -1065 8 -19 30 -78 49 -130 87
-239 167 -457 175 -475 22 -52 71 -188 71 -198 1 -23 -74 -217 -83 -217 -5 0
-7 9 -4 21 3 12 3 18 0 15 -6 -5 -39 77 -114 284 -12 30 -25 63 -30 72 -5 10
-9 26 -9 36 0 10 -4 22 -9 28 -10 11 -114 294 -114 312 0 6 -5 12 -10 12 -5 0
-7 7 -3 15 3 8 2 15 -2 15 -4 0 -16 26 -27 58 -10 31 -22 62 -26 67 -3 6 -10
21 -14 35 -9 31 -125 347 -167 452 -16 43 -28 85 -24 93 3 9 2 14 -3 11 -10
-7 -53 102 -45 115 3 5 1 9 -5 9 -5 0 -15 17 -21 38 -6 20 -15 46 -20 57 -5
11 -18 47 -30 80 -11 33 -24 67 -27 75 -3 8 -7 17 -7 20 -2 8 -27 72 -42 107
-8 17 -14 34 -14 38 0 4 -21 62 -46 129 -26 67 -47 126 -49 131 -8 33 -38 86
-54 95 -11 5 -62 10 -114 10 -73 0 -96 -3 -100 -14z"/>
<path d="M2563 3058 c-13 -6 -25 -20 -29 -32 -7 -21 -78 -215 -205 -556 -275
-742 -287 -775 -277 -787 7 -9 40 -13 100 -13 68 0 88 -3 83 -12 -4 -7 -1 -6
7 3 7 8 20 18 29 21 9 3 26 35 39 70 13 34 28 74 33 88 6 14 11 28 11 32 1 3
4 10 9 14 4 4 7 16 7 26 0 11 4 17 9 14 5 -3 9 0 8 7 -1 31 4 48 12 43 5 -4 7
4 3 16 -3 14 -1 19 6 14 8 -5 10 -2 6 9 -4 8 -2 21 4 28 5 6 13 27 17 45 3 17
11 32 16 32 6 0 7 4 4 10 -3 5 1 23 10 40 8 16 16 33 16 37 2 10 6 20 41 113
15 41 28 80 28 87 0 7 5 13 11 13 5 0 7 5 4 10 -3 6 -1 10 5 10 6 0 9 4 6 9
-7 11 16 71 27 71 4 0 6 4 3 9 -4 5 -1 22 6 38 6 15 10 32 9 37 -1 5 6 5 16 2
14 -6 15 -4 6 5 -9 9 -7 25 9 68 12 31 25 59 30 62 5 3 9 9 8 13 -4 16 12 66
20 61 5 -3 12 0 16 6 4 8 3 9 -4 5 -16 -10 -15 5 5 50 9 22 17 43 17 47 1 4 8
12 16 17 12 8 12 10 1 10 -11 0 -11 3 -1 15 7 8 9 15 4 15 -5 0 -2 5 7 10 13
7 15 18 10 42 l-7 33 -94 2 c-52 1 -105 -3 -117 -9z"/>
<path d="M2977 3052 c-9 -10 -44 -92 -77 -182 -34 -91 -65 -174 -70 -185 -5
-11 -59 -157 -120 -325 -62 -168 -116 -314 -121 -325 -5 -11 -18 -47 -29 -80
-12 -33 -25 -69 -30 -80 -5 -11 -79 -211 -166 -445 -86 -234 -206 -558 -266
-720 -153 -411 -149 -400 -143 -420 5 -15 15 -17 55 -15 41 3 48 1 44 -13 -5
-15 -4 -15 8 -2 7 8 33 16 58 17 70 4 78 6 73 20 -3 7 0 13 6 13 6 0 10 3 9 8
-3 16 15 61 23 56 5 -3 6 2 3 10 -3 8 -2 21 2 28 5 7 9 18 11 23 1 6 16 48 32
94 17 46 31 85 31 88 0 2 5 1 12 -3 7 -4 8 -3 4 4 -8 14 3 64 14 57 4 -3 7 1
7 8 -2 24 44 157 53 152 5 -3 12 0 16 6 4 8 3 9 -4 5 -17 -10 -15 20 3 37 8 8
12 17 9 20 -4 4 10 47 41 122 4 11 7 23 7 28 -1 4 2 7 8 7 5 0 7 6 4 14 -3 7
1 20 8 27 7 8 14 23 16 34 1 11 9 36 17 55 31 79 66 178 67 190 0 3 5 14 11
25 6 11 12 25 13 31 5 31 16 54 24 49 4 -3 6 4 3 15 -3 12 0 20 6 20 7 0 10 4
7 9 -8 13 4 42 15 35 5 -3 6 2 3 10 -3 9 -2 16 4 16 6 0 9 8 7 18 -1 9 1 22 5
27 5 6 9 15 10 20 4 32 14 55 23 55 6 0 8 3 5 6 -4 3 1 25 9 50 14 40 23 49
46 45 5 -1 6 3 2 9 -3 6 -11 8 -16 5 -12 -8 -11 -5 2 34 6 17 18 31 27 32 11
0 12 2 5 6 -20 8 -15 26 5 18 13 -5 14 -3 6 5 -13 13 -7 50 7 50 5 0 6 7 3 15
-4 8 -1 15 5 15 6 0 8 7 5 15 -4 8 -1 15 7 15 7 0 10 3 6 6 -7 8 42 148 54
152 5 2 7 7 4 12 -7 12 16 71 26 64 5 -3 6 2 3 11 -4 8 -1 22 6 30 7 8 9 15 5
15 -4 0 -2 7 5 15 7 9 13 25 14 38 1 12 8 21 15 19 7 -1 9 2 5 9 -3 6 -1 29 6
50 11 33 15 37 28 26 13 -11 14 -9 1 11 -12 20 -12 24 1 32 8 5 12 10 8 10 -4
0 -2 13 3 30 6 16 15 28 19 25 4 -3 6 5 2 17 -3 13 -1 19 5 15 7 -5 9 0 6 13
-4 15 0 20 13 20 11 0 15 3 9 8 -6 4 -10 12 -9 17 2 23 24 63 36 68 10 4 10 6
0 6 -10 1 -9 7 2 30 9 16 12 31 9 35 -4 3 -1 6 6 6 7 0 9 5 5 12 -5 8 -2 9 10
5 12 -5 15 -3 9 6 -11 18 -12 37 -2 37 5 0 8 3 7 8 0 4 2 15 5 25 4 9 10 25
14 35 8 22 10 29 12 43 0 5 4 8 9 6 9 -7 9 45 -1 61 -6 8 -39 12 -106 12 -81
0 -101 -3 -114 -18z"/>
<path d="M2320 2860 c-9 -6 -10 -10 -3 -10 6 0 15 5 18 10 8 12 4 12 -15 0z"/>
<path d="M2116 2322 c-3 -5 1 -9 9 -9 8 0 12 4 9 9 -3 4 -7 8 -9 8 -2 0 -6 -4
-9 -8z"/>
<path d="M1935 1829 c-4 -6 -5 -12 -2 -15 2 -3 7 2 10 11 7 17 1 20 -8 4z"/>
<path d="M1890 1701 c0 -6 4 -13 10 -16 6 -3 7 1 4 9 -7 18 -14 21 -14 7z"/>
<path d="M2710 1661 c0 -6 4 -13 10 -16 6 -3 7 1 4 9 -7 18 -14 21 -14 7z"/>
<path d="M1984 1490 c-21 -8 -27 -22 -100 -220 -7 -19 -63 -170 -124 -335
-207 -557 -231 -627 -226 -641 3 -8 10 -14 16 -14 6 0 8 -5 5 -10 -3 -6 -1
-10 4 -10 6 0 11 3 11 8 0 4 20 8 44 8 37 1 44 -1 39 -15 -4 -14 -3 -14 9 -1
7 9 27 15 45 14 37 -1 70 24 79 62 4 17 11 23 22 19 13 -5 13 -3 2 11 -12 13
-11 17 1 25 8 5 10 9 5 9 -6 0 -5 5 1 11 6 6 9 18 6 25 -3 8 0 14 6 14 6 0 10
3 10 8 -1 4 -1 14 0 22 1 11 3 12 9 3 5 -8 8 0 8 20 0 17 8 47 17 66 9 19 17
38 17 43 0 6 8 17 18 26 10 10 11 13 3 7 -12 -8 -13 -6 -7 10 4 11 13 32 18
48 5 15 14 27 20 27 5 0 7 4 4 9 -6 8 39 147 53 166 5 6 14 31 21 57 7 26 15
46 19 44 3 -2 7 6 7 17 1 12 10 40 19 62 10 22 19 45 20 50 12 53 60 163 68
158 6 -3 7 -1 3 5 -9 14 4 63 14 57 5 -3 12 0 16 6 4 8 3 9 -4 5 -13 -8 -15 4
-6 28 3 9 9 14 14 11 4 -2 5 6 3 19 -3 13 0 27 6 30 8 5 8 13 1 27 -9 17 -22
19 -103 18 -51 0 -102 -4 -113 -9z"/>
<path d="M1880 566 c0 -2 8 -10 18 -17 15 -13 16 -12 3 4 -13 16 -21 21 -21
13z"/>
<path d="M1450 519 c0 -5 5 -7 10 -4 6 3 10 8 10 11 0 2 -4 4 -10 4 -5 0 -10
-5 -10 -11z"/>
<path d="M2170 259 c0 -5 5 -7 10 -4 6 3 10 8 10 11 0 2 -4 4 -10 4 -5 0 -10
-5 -10 -11z"/>
</g>
</svg>
